PathFileType	4	(X/Y/Z)	/home/abdul/Desktop/myosuite/custom_workspace/IK/output/S4_12_2.trc
DataRate	CameraRate	NumFrames	NumMarkers	Units	OrigDataRate	OrigDataStartFrame	OrigNumFrames
200.0	200.0	22	3	mm	200.0	659	1054
Frame#	Time	V_Shoulder			V_Elbow			V_Wrist		
		X1	Y1	Z1	X2	Y2	Z2	X3	Y3	Z3

659	3.29	-83.82291234971034	558.9034834536646	272.92128197714766	-134.9414863046951	420.1124308946096	13.692895753112765	-77.83554972242635	208.58543119664063	52.06564857774566
660	3.295	-83.81619310544056	558.8805524491521	272.93589532992445	-134.88929095515644	420.0331838439239	13.741712018704881	-77.77266828748532	208.4238464995803	51.84755929643377
661	3.3	-83.80998653423603	558.8598301967875	272.9505638233276	-134.83459512708146	419.9524795259667	13.79072412449039	-77.7030148464443	208.26203141619683	51.63127047066304
662	3.305	-83.80427008310885	558.8412521847512	272.9652668647727	-134.77742400728977	419.8705999449778	13.839682865134282	-77.62665309507668	208.1004105027534	51.41690582944129
663	3.31	-83.79901950467523	558.8247537780646	272.9799851685668	-134.7178151138768	419.7878391469406	13.888337173726503	-77.5436712000746	207.9394273800358	51.20462964201024
664	3.315	-83.79420889597112	558.8102703394368	272.99470078639297	-134.65581847957753	419.70450280330283	13.936434419803225	-77.45418243877245	207.7795437846434	50.9946460635503
665	3.32	-83.78981074191397	558.79773735283	273.00939713274175	-134.5914968162642	419.6209077716428	13.983720721421646	-77.3583258106996	207.6212385803317	50.78719834493611
666	3.325	-83.78579596332561	558.7870905498386	273.02405900535564	-134.52492566020464	419.5373816324304	14.029941272925852	-77.25626661843734	207.46500672857854	50.582567908470224
667	3.33	-83.7821339694188	558.7782660389367	273.03867260077186	-134.45619349769208	419.4542622010182	14.074840689976583	-77.14819701516431	207.31135821757803	50.381073291841645
668	3.335	-83.7787927146369	558.7712004376225	273.0532255250655	-134.3854018706441	419.371897013996	14.118163373333228	-77.03433651618971	207.1608169489208	50.183068962867246
669	3.34	-83.7757387597252	558.7658310074436	273.0677067999138	-134.31266546175758	419.29064278905565	14.159653892772699	-76.91493247169785	207.01391958130034	49.98894400787972
670	3.345	-83.77293733690085	558.7620957918583	273.0821068641153	-134.23811215879408	419.21086485754824	14.199057392407095	-76.79026049785976	206.87121433068893	49.799120696925115
671	3.35	-83.77035241897784	558.7599337568363	273.0964175707132	-134.16188309756376	419.1329365689579	14.236120018521138	-76.66062486341082	206.73325972655644	49.614052929227654
672	3.355	-83.7679467922931	558.7592849340705	273.1106321798847	-134.08413268316798	419.0572386665858	14.270589370891507	-76.52635882874675	206.60062332385854	49.43422456266922
673	3.36	-83.76568213327111	558.7600905666216	273.1247453477684	-134.00502858905867	418.9841586338139	14.302214978374984	-76.38782493455808	206.47388037069874	49.26014763131763
674	3.365	-83.76351908845493	558.7622932567756	273.13875311141237	-133.9247517334701	418.91409001041836	14.330748799360977	-76.24541523700327	206.35361243176834	49.092360455320545
675	3.37	-83.76141735782419	558.7658371158475	273.15265287003194	-133.8434962327823	418.84743167851263	14.35594574747839	-76.0995514864161	206.24040596789118	48.931425647763135
676	3.375	-83.75933578121298	558.7706679156222	273.16644336277574	-133.76146933137971	418.7845871178283	14.377564242727574	-75.9506852465545	206.1348508722443	48.777928023366684
677	3.38	-83.75723242763387	558.7767332410732	273.1801246431998	-133.67889130757675	418.7259636301855	14.395366787977215	-75.79929795142569	206.0375389640885	48.632472414183354
678	3.385	-83.75506468730919	558.783982643963	273.1936980506551	-133.5959953551946	418.67197153315783	14.409120570524511	-75.64590089676898	205.94906244112536	48.495681397719636
679	3.39	-83.7527893662048	558.7923677968752	273.2071661787965	-133.51302744038856	418.6230233231099	14.418598088166762	-75.49103516334121	205.87001229189553	48.36819294319817
680	3.395	-83.75036278285815	558.8018426471937	273.2205328414184	-133.43024613334435	418.57953280796244	14.423577798975215	-75.33527146923336	205.8009766699466	48.25065798194425
